<?xml version="1.0" encoding="utf-8"?>
<!-- Generator: Adobe Illustrator 22.0.0, SVG Export Plug-In . SVG Version: 6.00 Build 0)  -->
<svg version="1.1" id="Layer_1" xmlns="http://www.w3.org/2000/svg" xmlns:xlink="http://www.w3.org/1999/xlink" x="0px" y="0px"
	 viewBox="0 0 101.4 47" style="enable-background:new 0 0 101.4 47;" xml:space="preserve">
<style type="text/css">
	.st0{fill:url(#SVGID_1_);}
	.st1{fill:url(#SVGID_2_);}
	.st2{fill:#005182;}
</style>
<g>
	<g>
		<g>
			<linearGradient id="SVGID_1_" gradientUnits="userSpaceOnUse" x1="-1.1353" y1="25.4378" x2="13.0024" y2="24.0241">
				<stop  offset="0" style="stop-color:#EC8023"/>
				<stop  offset="1" style="stop-color:#F1D80E"/>
			</linearGradient>
			<path class="st0" d="M9.9,18.6v-0.9v-0.4c0-0.8,0.4-1.5,1-1.9l10.7-6.9L22.6,8c0.1-0.1,0.2-0.1,0.3-0.2c0,0,0,0,0,0
				c0.2-0.1,0.4-0.2,0.6-0.3c0,0,0,0,0,0C28,5,30.8,5.9,33.1,7.4l0,0L30.9,6l-3.1-2c-1.1-0.7-2.3-1-3.5-1c-1.3,0-2.5,0.4-3.5,1
				L8.7,11.8c-0.9,0.6-1.7,1.4-2.2,2.4c-0.5,1-0.8,2.1-0.8,3.2v0.4v1.1v4.3v12.7v1.6c0,2.4,1.3,4.6,3.4,5.8c2.1,1.2,4.7,1.1,6.7-0.2
				l2.3-1.5l5-3.2c0.1-0.1,0.2-0.1,0.3-0.1v0c0,0,4.8-3,9.1-0.6l-1.7-1.1v0l-1.2-0.8l-1.6-1c-1.1-0.7-2.3-1-3.5-1
				c-1.3,0-2.5,0.4-3.5,1l-2.7,1.7l-4.6,3c-0.7,0.4-1.6,0.5-2.3,0.1c-0.7-0.4-1.2-1.2-1.2-2v-1.1v-0.5V23v-4.2h0c0,0,0,0,0-0.1V18.6
				z"/>
			<linearGradient id="SVGID_2_" gradientUnits="userSpaceOnUse" x1="26.3359" y1="25.0246" x2="45.3111" y2="24.8913">
				<stop  offset="0" style="stop-color:#204591"/>
				<stop  offset="0.1824" style="stop-color:#346EB1"/>
				<stop  offset="0.987" style="stop-color:#00AFEE"/>
			</linearGradient>
			<path class="st1" d="M42.1,14.1c-0.5-1-1.3-1.8-2.2-2.4l-6.8-4.4l0,0C30.8,5.9,28,5,23.5,7.5c0.7-0.2,1.4-0.2,2,0.2l12.1,7.7
				c0.6,0.4,1,1.1,1,1.9v0.6v0.7v0.2v0.4l0,0v17h0v1v0.2c0,0.8-0.5,1.6-1.2,2c-0.7,0.4-1.6,0.4-2.3-0.1l-2.7-1.7
				c-4.3-2.4-9.1,0.6-9.1,0.6v0c0.7-0.3,1.5-0.3,2.2,0.1l5.2,3.3l2.1,1.4c2,1.3,4.6,1.4,6.7,0.2c2.1-1.2,3.4-3.4,3.4-5.8v-0.2v-1
				V25.4v-6.6v-1.3v-0.3C42.9,16.2,42.7,15.1,42.1,14.1z"/>
		</g>
	</g>
	<g>
		<path class="st2" d="M54.3,38.4v-4.8h-5.9v4.8h-2.3v-12h2.3v5h5.9v-5h2.2v12H54.3z"/>
		<path class="st2" d="M70.4,32.5c0,3.1-1.9,6.2-6.1,6.2c-4.2,0-6.2-3-6.2-6.2s2-6.3,6.2-6.3C68.4,26.2,70.4,29.3,70.4,32.5z
			 M60.4,32.5c0.1,2,1.1,4.1,3.9,4.1c2.8,0,3.9-2.1,3.9-4.1c0-2-1.1-4.3-3.9-4.3C61.5,28.2,60.3,30.5,60.4,32.5z"/>
		<path class="st2" d="M82.5,29.7l-3.9,5.2h-0.4l-3.8-5.2v8.7h-2.3v-12h2.6l3.7,5.1l3.7-5.1h2.6v12h-2.3V29.7z"/>
		<path class="st2" d="M95.8,38.4h-9c0-4,0-8,0-12h9v2.2h-6.7v2.8h6.5v2.1h-6.5v2.7h6.7V38.4z"/>
	</g>
	<g>
		<path class="st2" d="M49.9,18.6c-0.6-0.5-1.2-0.6-1.8-0.6c-0.9,0-1.8,0.3-1.7,1.1c0,0.8,1,0.9,1.8,1.1c1,0.2,2.5,0.4,2.4,1.7
			c0,1.3-1.4,1.6-2.4,1.6c-1,0-2-0.4-2.5-1.2l0.4-0.4c0.5,0.7,1.3,1,2.1,1c0.7,0,1.8-0.2,1.8-1.1c0-0.8-0.9-1-1.9-1.2
			c-1.1-0.2-2.2-0.4-2.3-1.6c0-1.1,1.1-1.6,2.3-1.6c0.8,0,1.6,0.2,2.2,0.8L49.9,18.6z"/>
		<path class="st2" d="M52.4,15.1v8.2h-0.6v-8.2H52.4z"/>
		<path class="st2" d="M55.3,15.8v1.7h2V18h-2v3.5c0,0.8,0.2,1.3,1.1,1.3c0.3,0,0.6-0.1,0.9-0.2l0.2,0.5c-0.4,0.2-0.7,0.3-1.1,0.3
			c-1.2,0-1.6-0.7-1.6-1.9V18h-1.2v-0.5h1.2v-1.7L55.3,15.8z"/>
		<path class="st2" d="M67.3,16.7c-0.6-1-1.6-1.1-2.5-1.1c-1,0-2.5,0.4-2.5,1.7c0,1,1.1,1.3,2.5,1.5c1.6,0.3,3.2,0.6,3.2,2.4
			c0,1.9-1.9,2.3-3.3,2.3c-1.3,0-2.7-0.5-3.4-1.8l0.6-0.3c0.5,1,1.8,1.5,2.8,1.5c1,0,2.6-0.3,2.6-1.7c0-1.2-1.3-1.5-2.7-1.8
			c-1.5-0.3-3-0.6-3-2.1c0-1.7,1.8-2.3,3.1-2.3c1.2,0,2.2,0.2,3,1.4L67.3,16.7z"/>
		<path class="st2" d="M78,23.3v-3.5c0-1.1-0.8-1.9-1.9-1.9s-1.9,0.8-1.9,1.9v3.4h-0.6v-3.4c0-1.1-0.8-1.9-1.9-1.9
			c-1.1,0-1.9,0.8-1.9,1.9v3.4h-0.6v-5.8h0.5l0,1c0.4-0.8,1.1-1.1,1.9-1.1c0.9,0,1.8,0.4,2.1,1.4c0.4-1,1.3-1.4,2.1-1.4
			c1.4,0,2.4,1,2.4,2.4v3.5H78z"/>
		<path class="st2" d="M85.7,17.5c0,1.9,0,3.9,0,5.8h-0.6v-1.2c-0.6,0.9-1.4,1.3-2.4,1.3c-1.6,0-2.9-1.2-2.9-3c0-1.8,1.3-3,2.9-3
			c0.9,0,1.9,0.4,2.4,1.3v-1.3H85.7z M80.4,20.4c0,1.5,1.1,2.4,2.4,2.4c3.2,0,3.2-4.8,0-4.8C81.5,18,80.4,19,80.4,20.4z"/>
		<path class="st2" d="M87.8,17.5l0,1c0.4-0.8,1.2-1.1,1.9-1.1c0.4,0,0.9,0.1,1.2,0.3l-0.3,0.5c-0.3-0.2-0.6-0.3-1-0.3
			c-1.1,0-1.9,0.9-1.9,1.9v3.4h-0.6v-5.8H87.8z"/>
		<path class="st2" d="M93.6,15.8v1.7h2V18h-2v3.5c0,0.8,0.2,1.3,1.1,1.3c0.3,0,0.6-0.1,0.9-0.2l0.2,0.5c-0.4,0.2-0.7,0.3-1.1,0.3
			c-1.2,0-1.6-0.7-1.6-1.9V18h-1.2v-0.5H93v-1.7L93.6,15.8z"/>
	</g>
</g>
</svg>
